<?xml version="1.0" encoding="utf-8"?>
<!-- Generator: Adobe Illustrator 22.0.1, SVG Export Plug-In . SVG Version: 6.00 Build 0)  -->
<svg version="1.1" id="Layer_1" xmlns="http://www.w3.org/2000/svg" xmlns:xlink="http://www.w3.org/1999/xlink" x="0px" y="0px"
	 viewBox="0 0 113.4 113.4" style="enable-background:new 0 0 113.4 113.4;" xml:space="preserve">
<style type="text/css">
	.st0{clip-path:url(#SVGID_2_);fill:#FDB714;}
</style>
<g>
	<defs>
		<rect id="SVGID_1_" x="0" width="113.4" height="113.4"/>
	</defs>
	<clipPath id="SVGID_2_">
		<use xlink:href="#SVGID_1_"  style="overflow:visible;"/>
	</clipPath>
	<path class="st0" d="M70,46.9l-1.1,10l-7.9-0.1c-0.1,12.7-0.3,28.3-0.3,28.3L48.8,85c0,0,0.2-15.5,0.3-28.3l-5.6-0.1l0.1-10
		l5.6,0.1l0.1-6.5c0.1-4.6,2.3-11.9,12-11.7l8.7,0.1l-0.1,9.7c0,0-5.3-0.1-6.3-0.1c-1,0-2.5,0.5-2.5,2.7L61,46.8L70,46.9z M57.3,0
		C26-0.4,0.4,24.7,0,56.1c-0.4,31.3,24.7,57,56,57.3c31.3,0.4,57-24.7,57.3-56C113.7,26,88.6,0.4,57.3,0"/>
</g>
</svg>
