<?xml version="1.0" encoding="utf-8"?>
<!-- Generator: Adobe Illustrator 22.0.1, SVG Export Plug-In . SVG Version: 6.00 Build 0)  -->
<svg version="1.1" id="Layer_1" xmlns="http://www.w3.org/2000/svg" xmlns:xlink="http://www.w3.org/1999/xlink" x="0px" y="0px"
	 viewBox="0 0 113.4 113.4" style="enable-background:new 0 0 113.4 113.4;" xml:space="preserve">
<style type="text/css">
	.st0{clip-path:url(#SVGID_2_);fill:#FFFFFF;}
</style>
<g>
	<defs>
		<rect id="SVGID_1_" y="-0.5" width="113.9" height="113.9"/>
	</defs>
	<clipPath id="SVGID_2_">
		<use xlink:href="#SVGID_1_"  style="overflow:visible;"/>
	</clipPath>
	<path class="st0" d="M85.4,83.7H73.2V64c0-4.9-1.8-8.3-6.2-8.3c-3.4,0-5.4,2.3-6.3,4.5c-0.3,0.8-0.4,1.9-0.4,3v20.5H48.1
		c0,0,0.2-33.3,0-36.7h12.2v5.2c1.6-2.5,4.5-6.1,11-6.1c8,0,14.1,5.2,14.1,16.5V83.7z M35.3,41.9L35.3,41.9c-4.2,0-6.8-2.8-6.8-6.3
		c0-3.6,2.7-6.3,6.9-6.3c4.2,0,6.7,2.7,6.8,6.3C42.2,39.1,39.5,41.9,35.3,41.9 M41.4,83.7H29.2V47h12.2V83.7z M56.9-0.5
		C25.5-0.5,0,25,0,56.5c0,31.4,25.5,56.9,56.9,56.9c31.4,0,56.9-25.5,56.9-56.9C113.9,25,88.4-0.5,56.9-0.5"/>
</g>
</svg>
