<?xml version="1.0" encoding="utf-8"?>
<!-- Generator: Adobe Illustrator 22.0.1, SVG Export Plug-In . SVG Version: 6.00 Build 0)  -->
<svg version="1.1" id="Layer_1" xmlns="http://www.w3.org/2000/svg" xmlns:xlink="http://www.w3.org/1999/xlink" x="0px" y="0px"
	 viewBox="0 0 226.8 106.7" style="enable-background:new 0 0 226.8 106.7;" xml:space="preserve">
<style type="text/css">
	.st0{clip-path:url(#SVGID_2_);fill:#FDB714;}
	.st1{fill:#58595B;}
</style>
<g>
	<defs>
		<rect id="SVGID_1_" y="0.9" width="226.8" height="105"/>
	</defs>
	<clipPath id="SVGID_2_">
		<use xlink:href="#SVGID_1_"  style="overflow:visible;"/>
	</clipPath>
	<path class="st0" d="M80.8,40.9l64.9-0.6c7.2-0.1,13,5.6,13.1,12.7c0.1,7.1-5.7,12.8-12.9,12.9l-65,0.6c-7.2,0.1-13-5.6-13.1-12.7
		C67.9,46.7,73.6,40.9,80.8,40.9"/>
</g>
<polygon class="st1" points="0,0.9 0,105.8 100.3,105.8 100.3,73.7 82.5,73.7 82.5,87.2 17.8,87.2 17.8,19.5 82.5,19.5 82.5,34.9 
	100.3,34.9 100.3,0.9 "/>
<polygon class="st1" points="126.5,0.9 126.5,34.9 144.3,34.9 144.3,19.5 208.9,19.5 208.9,87.2 144.3,87.2 144.3,73.7 126.5,73.7 
	126.5,105.8 226.8,105.8 226.8,0.9 "/>
</svg>
