<?xml version="1.0" encoding="utf-8"?>
<!-- Generator: Adobe Illustrator 22.0.1, SVG Export Plug-In . SVG Version: 6.00 Build 0)  -->
<svg version="1.1" id="Layer_1" xmlns="http://www.w3.org/2000/svg" xmlns:xlink="http://www.w3.org/1999/xlink" x="0px" y="0px"
	 viewBox="0 0 113.4 113.4" style="enable-background:new 0 0 113.4 113.4;" xml:space="preserve">
<style type="text/css">
	.st0{clip-path:url(#SVGID_2_);fill:#FFFFFF;}
</style>
<g>
	<defs>
		<rect id="SVGID_1_" x="0" width="113.4" height="113.4"/>
	</defs>
	<clipPath id="SVGID_2_">
		<use xlink:href="#SVGID_1_"  style="overflow:visible;"/>
	</clipPath>
	<path class="st0" d="M91.7,30.2l-5.6,5.4c-0.5,0.4-0.7,1-0.6,1.6v39.3c-0.1,0.6,0.1,1.2,0.6,1.6l5.5,5.4v1.2H64.1v-1.2l5.6-5.5
		c0.6-0.6,0.6-0.7,0.6-1.6V44.5L54.6,84.4h-2.1L34.2,44.5v26.7c-0.2,1.1,0.2,2.3,1,3.1l7.3,8.9v1.2H21.7v-1.2l7.3-8.9
		c0.8-0.8,1.1-2,0.9-3.1V40.3c0.1-0.9-0.2-1.7-0.9-2.3l-6.5-7.9V29h20.3l15.7,34.4L72.3,29h19.3V30.2z M56.7,0C25.4,0,0,25.4,0,56.7
		c0,31.3,25.4,56.7,56.7,56.7s56.7-25.4,56.7-56.7C113.4,25.4,88,0,56.7,0"/>
</g>
</svg>
